<svg width="250" height="250" viewBox="0 0 250 250" fill="none" xmlns="http://www.w3.org/2000/svg">
<circle cx="125" cy="125" r="125" fill="#4A087D" fill-opacity="0.3"/>
<path d="M182.891 99.976C180.43 99.976 178.438 98.1934 178.438 95.9916V85.8906C178.438 83.692 176.442 81.9062 173.984 81.9062C171.524 81.9062 169.531 80.1237 169.531 77.9219C169.531 75.7201 171.524 73.9375 173.984 73.9375C181.351 73.9375 187.344 79.2998 187.344 85.8906V95.9916C187.344 98.1934 185.351 99.976 182.891 99.976Z" fill="#28B446"/>
<path d="M173.984 177.797C166.618 177.797 160.625 172.435 160.625 165.844V149.906C160.625 143.315 154.632 137.953 147.266 137.953C144.805 137.953 142.812 136.171 142.812 133.969C142.812 131.767 144.805 129.984 147.266 129.984C159.542 129.984 169.531 138.922 169.531 149.906V165.844C169.531 168.042 171.527 169.828 173.984 169.828C176.442 169.828 178.438 168.042 178.438 165.844V117.766C178.438 115.564 180.43 113.781 182.891 113.781C185.351 113.781 187.344 115.564 187.344 117.766V165.844C187.344 172.435 181.351 177.797 173.984 177.797Z" fill="#518EF8"/>
<path d="M151.719 117.766V190.016H71.5625V117.766C71.5625 115.534 73.5212 113.781 76.0156 113.781H147.266C149.76 113.781 151.719 115.534 151.719 117.766Z" fill="#CC2E43"/>
<path d="M151.719 117.766V190.016H111.641V113.781H147.266C149.76 113.781 151.719 115.534 151.719 117.766Z" fill="#AE2538"/>
<path d="M147.266 58H76.0156C68.6227 58 62.6562 63.3384 62.6562 69.9531V109.797C62.6562 116.411 68.6227 121.75 76.0156 121.75H147.266C154.659 121.75 160.625 116.411 160.625 109.797V69.9531C160.625 63.3384 154.659 58 147.266 58Z" fill="#E63950"/>
<path d="M191.797 121.75H173.984C171.524 121.75 169.531 119.967 169.531 117.766V109.797C169.531 98.8129 179.521 89.875 191.797 89.875C194.258 89.875 196.25 91.6576 196.25 93.8594V117.766C196.25 119.967 194.258 121.75 191.797 121.75Z" fill="#CC2E43"/>
<path d="M115.292 131.737C114.491 130.621 113.066 130.143 111.641 130.143C110.215 130.143 108.79 130.621 107.989 131.737C105.05 135.483 98.2812 144.806 98.2812 149.906C98.2812 156.52 104.248 161.859 111.641 161.859C119.034 161.859 125 156.52 125 149.906C125 144.806 118.231 135.483 115.292 131.737Z" fill="#FDBF00"/>
<path d="M169.531 190.016C169.531 192.246 167.573 194 165.078 194H58.2031C55.7087 194 53.75 192.246 53.75 190.016C53.75 187.784 55.7087 186.031 58.2031 186.031H165.078C167.573 186.031 169.531 187.784 169.531 190.016Z" fill="#5A5A5A"/>
<path d="M133.906 173.812C133.906 176.043 131.948 177.797 129.453 177.797H93.8281C91.3337 177.797 89.375 176.043 89.375 173.812C89.375 171.581 91.3337 169.828 93.8281 169.828H129.453C131.948 169.828 133.906 171.581 133.906 173.812Z" fill="#5A5A5A"/>
<path d="M160.625 69.9531V109.797C160.625 116.411 154.659 121.75 147.266 121.75H111.641V58H147.266C154.659 58 160.625 63.3384 160.625 69.9531Z" fill="#CC2E43"/>
<path d="M111.641 161.859V130.143C113.066 130.143 114.491 130.621 115.292 131.737C118.231 135.483 125 144.806 125 149.906C125 156.52 119.034 161.859 111.641 161.859Z" fill="#FF9F00"/>
<path d="M169.531 190.016C169.531 192.246 167.573 194 165.078 194H111.641V186.031H165.078C167.573 186.031 169.531 187.784 169.531 190.016Z" fill="#444444"/>
<path d="M133.906 173.812C133.906 176.043 131.948 177.797 129.453 177.797H111.641V169.828H129.453C131.948 169.828 133.906 171.581 133.906 173.812Z" fill="#444444"/>
<path d="M138.359 73.9375H84.9219C82.4274 73.9375 80.4688 75.69 80.4688 77.9219V101.828C80.4688 104.059 82.4274 105.812 84.9219 105.812H138.359C140.854 105.812 142.812 104.059 142.812 101.828V77.9219C142.812 75.69 140.854 73.9375 138.359 73.9375Z" fill="#DEECF1"/>
<path d="M138.359 105.812H111.641V73.9375H138.359C140.854 73.9375 142.812 75.69 142.812 77.9219V101.828C142.812 104.059 140.854 105.812 138.359 105.812Z" fill="#C6E2E7"/>
</svg>
