<svg width="16" height="12" viewBox="0 0 16 12" fill="none" xmlns="http://www.w3.org/2000/svg">
<path d="M15.6755 12H11.3247C11.1453 12 11 11.5523 11 11C11 10.4477 11.1453 10 11.3247 10H15.6753C15.8547 10 16 10.4477 16 11C16 11.5523 15.8548 12 15.6755 12Z" fill="#4A087D"/>
<path d="M15.4158 7H7.58438C7.26161 7 7 6.55233 7 6C7 5.44767 7.26161 5 7.58438 5H15.4156C15.7384 5 16 5.44767 16 6C16.0002 6.55233 15.7386 7 15.4158 7Z" fill="#4A087D"/>
<path d="M14.9615 2H1.03889C0.465078 2 0 1.55233 0 1C0 0.447667 0.465078 0 1.03889 0H14.9611C15.5349 0 16 0.447667 16 1C16 1.55233 15.5353 2 14.9615 2Z" fill="#4A087D"/>
</svg>
